<svg xmlns="http://www.w3.org/2000/svg" xmlns:xlink="http://www.w3.org/1999/xlink" viewBox="0 0 48 48"><defs><clipPath id="clip-path"><circle cx="24" cy="24" r="24" fill="none"/></clipPath><radialGradient id="radial-gradient" cx="2.551" cy="3.781" r="3.225" gradientUnits="userSpaceOnUse"><stop offset="0" stop-opacity="0"/><stop offset="0.91" stop-opacity="0.798"/><stop offset="1"/></radialGradient><linearGradient id="linear-gradient" x1="2.551" x2="2.551" y2="7.563" gradientUnits="userSpaceOnUse"><stop offset="0" stop-opacity="0"/><stop offset="0.09" stop-opacity="0.202"/><stop offset="1"/></linearGradient><radialGradient id="radial-gradient-2" cx="16448.195" cy="16648.739" r="7.402" gradientTransform="translate(16458.365 16651.217) rotate(180)" xlink:href="#radial-gradient"/><linearGradient id="linear-gradient-2" x1="16448.195" y1="16646.261" x2="16448.195" y2="16651.217" gradientTransform="translate(16458.365 16651.217) rotate(180)" xlink:href="#linear-gradient"/><radialGradient id="radial-gradient-3" cx="24" cy="24" r="24" gradientUnits="userSpaceOnUse"><stop offset="0.5" stop-color="#d17b30" stop-opacity="0"/><stop offset="0.697" stop-color="#d17b30" stop-opacity="0.01"/><stop offset="0.769" stop-color="#d07b30" stop-opacity="0.045"/><stop offset="0.819" stop-color="#cf7a2f" stop-opacity="0.107"/><stop offset="0.86" stop-color="#cd7a2f" stop-opacity="0.196"/><stop offset="0.895" stop-color="#cb792e" stop-opacity="0.311"/><stop offset="0.927" stop-color="#c9782d" stop-opacity="0.454"/><stop offset="0.955" stop-color="#c6772c" stop-opacity="0.623"/><stop offset="0.98" stop-color="#c2762a" stop-opacity="0.813"/><stop offset="1" stop-color="#bf7529"/><stop offset="1" stop-color="#d17b30"/></radialGradient><radialGradient id="radial-gradient-4" cx="24" cy="24" r="24" gradientUnits="userSpaceOnUse"><stop offset="0.5" stop-color="#ffdf00" stop-opacity="0"/><stop offset="1" stop-color="#d17b30"/></radialGradient><radialGradient id="radial-gradient-5" cx="24" cy="22.756" r="22.756" gradientUnits="userSpaceOnUse"><stop offset="0" stop-color="#ffdf00"/><stop offset="0.162" stop-color="#ffdf00" stop-opacity="0.987"/><stop offset="0.293" stop-color="#ffdf00" stop-opacity="0.948"/><stop offset="0.412" stop-color="#ffdf00" stop-opacity="0.882"/><stop offset="0.525" stop-color="#ffdf00" stop-opacity="0.788"/><stop offset="0.633" stop-color="#ffdf00" stop-opacity="0.668"/><stop offset="0.738" stop-color="#ffdf00" stop-opacity="0.519"/><stop offset="0.84" stop-color="#ffdf00" stop-opacity="0.343"/><stop offset="0.937" stop-color="#ffdf00" stop-opacity="0.145"/><stop offset="1" stop-color="#ffdf00" stop-opacity="0"/></radialGradient><linearGradient id="linear-gradient-3" x1="-101.631" y1="184.143" x2="-58.605" y2="184.143" gradientTransform="translate(208.143 104.118) rotate(90)" gradientUnits="userSpaceOnUse"><stop offset="0" stop-color="#fff"/><stop offset="0.5" stop-color="#fff" stop-opacity="0"/></linearGradient><symbol id="Eye" data-name="Eye" viewBox="0 0 5.102 7.563"><g style="mix-blend-mode:hard-light"><ellipse cx="2.551" cy="3.781" rx="2.551" ry="3.781" opacity="0.5" fill="url(#radial-gradient)"/><ellipse cx="2.551" cy="3.781" rx="2.551" ry="3.781" opacity="0.5" fill="url(#linear-gradient)"/></g></symbol><symbol id="Mouth" data-name="Mouth" viewBox="0 0 20.34 4.956"><g style="mix-blend-mode:hard-light"><path d="M20.34,4.956A12.913,12.913,0,0,0,0,4.956a16.773,16.773,0,0,1,20.34,0Z" opacity="0.5" fill="url(#radial-gradient-2)"/><path d="M20.34,4.956A12.913,12.913,0,0,0,0,4.956a16.773,16.773,0,0,1,20.34,0Z" opacity="0.5" fill="url(#linear-gradient-2)"/></g></symbol></defs><title>Frictionless</title><g style="isolation:isolate"><g id="Layer_1" data-name="Layer 1"><g clip-path="url(#clip-path)"><circle cx="24" cy="24" r="24" fill="#ffdf00"/><circle cx="24" cy="24" r="24" opacity="0.75" fill="url(#radial-gradient-3)"/><circle cx="24" cy="24" r="24" opacity="0.75" fill="url(#radial-gradient-4)"/><circle cx="24" cy="22.756" r="22.756" fill="url(#radial-gradient-5)"/><circle cx="24" cy="24" r="21.513" opacity="0.5" fill="url(#linear-gradient-3)" style="mix-blend-mode:hard-light"/><g clip-path="url(#clip-path)"><g opacity="0.25" style="mix-blend-mode:lighten"><path d="M31.058,32.9c-1.476,0-2.676-1.752-2.676-3.906s1.2-3.906,2.676-3.906,2.675,1.752,2.675,3.906S32.533,32.9,31.058,32.9Zm-14.026,0c-1.476,0-2.677-1.752-2.677-3.906s1.2-3.906,2.677-3.906,2.676,1.752,2.676,3.906S18.507,32.9,17.032,32.9ZM34.17,17.7a.126.126,0,0,1-.076-.025,16.645,16.645,0,0,0-20.188,0,.127.127,0,0,1-.165-.012.125.125,0,0,1-.009-.165,13.038,13.038,0,0,1,20.537,0,.126.126,0,0,1-.01.165A.129.129,0,0,1,34.17,17.7Z" fill="#fff"/></g><g opacity="0.25" style="mix-blend-mode:lighten"><path d="M31.058,32.823c-1.476,0-2.676-1.752-2.676-3.906s1.2-3.906,2.676-3.906,2.675,1.752,2.675,3.906S32.533,32.823,31.058,32.823Zm-14.026,0c-1.476,0-2.677-1.752-2.677-3.906s1.2-3.906,2.677-3.906,2.676,1.752,2.676,3.906S18.507,32.823,17.032,32.823Zm17.138-15.2a.126.126,0,0,1-.076-.025,16.645,16.645,0,0,0-20.188,0,.127.127,0,0,1-.165-.012.125.125,0,0,1-.009-.165,13.038,13.038,0,0,1,20.537,0,.126.126,0,0,1-.01.165A.129.129,0,0,1,34.17,17.626Z" fill="#fff"/></g><g opacity="0.25" style="mix-blend-mode:lighten"><path d="M31.058,32.7c-1.476,0-2.676-1.752-2.676-3.906s1.2-3.906,2.676-3.906,2.675,1.752,2.675,3.906S32.533,32.7,31.058,32.7Zm-14.026,0c-1.476,0-2.677-1.752-2.677-3.906s1.2-3.906,2.677-3.906,2.676,1.752,2.676,3.906S18.507,32.7,17.032,32.7ZM34.17,17.5a.126.126,0,0,1-.076-.025,16.645,16.645,0,0,0-20.188,0,.127.127,0,0,1-.165-.012.125.125,0,0,1-.009-.165,13.038,13.038,0,0,1,20.537,0,.126.126,0,0,1-.01.165A.129.129,0,0,1,34.17,17.5Z" fill="#fff"/></g><g opacity="0.25" style="mix-blend-mode:multiply"><path d="M31.058,32.323c-1.476,0-2.676-1.752-2.676-3.906s1.2-3.906,2.676-3.906,2.675,1.752,2.675,3.906S32.533,32.323,31.058,32.323Zm-14.026,0c-1.476,0-2.677-1.752-2.677-3.906s1.2-3.906,2.677-3.906,2.676,1.752,2.676,3.906S18.507,32.323,17.032,32.323Zm17.138-15.2a.126.126,0,0,1-.076-.025,16.645,16.645,0,0,0-20.188,0,.127.127,0,0,1-.165-.012.125.125,0,0,1-.009-.165,13.038,13.038,0,0,1,20.537,0,.126.126,0,0,1-.01.165A.129.129,0,0,1,34.17,17.126Z"/></g><g opacity="0.5" style="mix-blend-mode:multiply"><path d="M31.058,32.448c-1.476,0-2.676-1.752-2.676-3.906s1.2-3.906,2.676-3.906,2.675,1.752,2.675,3.906S32.533,32.448,31.058,32.448Zm-14.026,0c-1.476,0-2.677-1.752-2.677-3.906s1.2-3.906,2.677-3.906,2.676,1.752,2.676,3.906S18.507,32.448,17.032,32.448Zm17.138-15.2a.126.126,0,0,1-.076-.025,16.645,16.645,0,0,0-20.188,0,.127.127,0,0,1-.165-.012.125.125,0,0,1-.009-.165,13.038,13.038,0,0,1,20.537,0,.126.126,0,0,1-.01.165A.129.129,0,0,1,34.17,17.251Z"/></g><path d="M31.058,24.886c-1.409,0-2.551,1.693-2.551,3.781s1.142,3.782,2.551,3.782,2.551-1.693,2.551-3.782S32.466,24.886,31.058,24.886ZM24,12.3a12.894,12.894,0,0,0-10.17,4.956,16.773,16.773,0,0,1,20.34,0A12.894,12.894,0,0,0,24,12.3ZM17.032,24.886c-1.409,0-2.551,1.693-2.551,3.781s1.142,3.782,2.551,3.782,2.55-1.693,2.55-3.782S18.44,24.886,17.032,24.886Z" fill="#d17b30"/><g opacity="0.75"><use width="5.102" height="7.563" transform="translate(28.507 24.886)" xlink:href="#Eye"/><use width="20.34" height="4.956" transform="translate(13.83 12.295)" xlink:href="#Mouth"/><use width="5.102" height="7.563" transform="translate(14.481 24.886)" xlink:href="#Eye"/></g></g></g></g></g></svg>